<svg width="250" height="37" fill="none" xmlns="http://www.w3.org/2000/svg"><path stroke="#222" stroke-width="2" d="M1 1h248v35H1z"/><g filter="url(#prefix__filter0_d)"><path d="M23.28 25.24c.577 0 1.049-.068 1.417-.204.376-.144.676-.332.9-.564.224-.232.38-.496.468-.792a3.35 3.35 0 00.132-.936c0-.352-.052-.668-.156-.948a1.65 1.65 0 00-.504-.708c-.232-.2-.536-.352-.912-.456-.368-.104-.824-.156-1.368-.156h-3.06v4.764h3.084zm-3.083-11.916v4.704h2.364c.504 0 .952-.04 1.344-.12.392-.088.72-.224.984-.408.264-.184.464-.424.6-.72.144-.304.216-.668.216-1.092 0-.432-.06-.8-.18-1.104a1.593 1.593 0 00-.528-.732 2.271 2.271 0 00-.912-.396 5.682 5.682 0 00-1.308-.132h-2.58zm2.58-2.736c1.168 0 2.164.112 2.988.336.832.216 1.508.528 2.028.936.528.4.912.888 1.152 1.464.24.576.36 1.22.36 1.932 0 .4-.06.784-.18 1.152a3.334 3.334 0 01-.54 1.044c-.24.32-.552.612-.936.876s-.84.488-1.368.672c1.184.28 2.06.736 2.628 1.368.568.632.852 1.452.852 2.46a4.89 4.89 0 01-.432 2.052 4.578 4.578 0 01-1.236 1.644c-.544.464-1.216.828-2.016 1.092-.792.256-1.704.384-2.736.384h-6.744V10.588h6.18zm24.162 9.768c0-.344-.048-.672-.144-.984a2.217 2.217 0 00-.432-.828c-.2-.24-.452-.428-.756-.564-.304-.144-.668-.216-1.092-.216-.792 0-1.412.224-1.86.672-.448.448-.74 1.088-.876 1.92h5.16zm-5.208 1.968c.104 1.16.432 2.008.984 2.544.56.536 1.288.804 2.184.804.456 0 .848-.052 1.176-.156.336-.112.628-.232.876-.36.256-.136.484-.256.684-.36.208-.112.412-.168.612-.168.256 0 .456.096.6.288l.96 1.2c-.352.408-.74.748-1.164 1.02a6.672 6.672 0 01-1.32.636 7.012 7.012 0 01-1.38.312 9.839 9.839 0 01-1.344.096c-.864 0-1.672-.14-2.424-.42a5.672 5.672 0 01-1.956-1.26c-.552-.56-.988-1.252-1.308-2.076-.32-.824-.48-1.78-.48-2.868 0-.84.136-1.632.408-2.376.28-.744.68-1.392 1.2-1.944a5.617 5.617 0 011.896-1.308c.744-.328 1.584-.492 2.52-.492.792 0 1.52.128 2.184.384a4.718 4.718 0 011.728 1.092c.488.48.864 1.072 1.128 1.776.272.696.408 1.492.408 2.388 0 .248-.012.452-.036.612-.024.16-.064.288-.12.384a.469.469 0 01-.228.204 1.2 1.2 0 01-.372.048H41.73zm23.895.504c-.808.04-1.48.112-2.016.216-.536.096-.964.224-1.284.384-.312.16-.536.344-.672.552a1.2 1.2 0 00-.192.66c0 .48.132.82.396 1.02.272.2.648.3 1.128.3.552 0 1.028-.096 1.428-.288.408-.2.812-.508 1.212-.924v-1.92zm-6.744-5.484a7.316 7.316 0 012.412-1.464 8.113 8.113 0 012.856-.492c.736 0 1.392.12 1.968.36.584.24 1.076.576 1.476 1.008.408.424.72.932.936 1.524.216.592.324 1.24.324 1.944V28h-1.512c-.312 0-.552-.044-.72-.132-.16-.088-.292-.272-.396-.552l-.264-.792c-.312.272-.616.512-.912.72a5.401 5.401 0 01-.9.528 4.94 4.94 0 01-1.008.312 5.953 5.953 0 01-1.188.108c-.544 0-1.04-.072-1.488-.216a3.347 3.347 0 01-1.164-.636 2.919 2.919 0 01-.744-1.068c-.176-.424-.264-.912-.264-1.464 0-.456.116-.912.348-1.368.232-.456.628-.868 1.188-1.236.568-.376 1.32-.684 2.256-.924.944-.248 2.124-.388 3.54-.42v-.636c0-.776-.164-1.344-.492-1.704-.328-.368-.8-.552-1.416-.552-.456 0-.836.056-1.14.168-.304.104-.572.22-.804.348-.224.12-.436.236-.636.348-.2.104-.432.156-.696.156a1 1 0 01-.588-.168c-.152-.12-.28-.26-.384-.42l-.588-1.056zm28.733 1.044a1.486 1.486 0 01-.288.3c-.096.064-.232.096-.408.096a.923.923 0 01-.468-.132 6.469 6.469 0 00-.504-.3 3.651 3.651 0 00-.684-.3c-.264-.096-.592-.144-.984-.144-.496 0-.928.092-1.296.276-.36.176-.66.432-.9.768s-.42.744-.54 1.224a7.15 7.15 0 00-.168 1.62c0 1.264.252 2.232.756 2.904.512.672 1.208 1.008 2.088 1.008.304 0 .564-.024.78-.072.224-.056.416-.124.576-.204a2.21 2.21 0 00.432-.264c.12-.096.232-.184.336-.264.112-.08.22-.144.324-.192a.82.82 0 01.372-.084c.256 0 .456.096.6.288l.948 1.2a5.814 5.814 0 01-1.128 1.02 6.12 6.12 0 01-1.248.636 6.12 6.12 0 01-1.296.312c-.44.064-.876.096-1.308.096-.76 0-1.48-.14-2.16-.42a5.235 5.235 0 01-1.788-1.248c-.512-.544-.92-1.212-1.224-2.004-.296-.792-.444-1.696-.444-2.712 0-.904.132-1.744.396-2.52a5.725 5.725 0 011.164-2.016 5.312 5.312 0 011.896-1.332c.76-.328 1.636-.492 2.628-.492.944 0 1.772.152 2.484.456a5.976 5.976 0 011.92 1.32l-.864 1.176zm13.161-1.548a6.75 6.75 0 01.72-.564 4.65 4.65 0 01.804-.444c.288-.128.592-.224.912-.288a4.92 4.92 0 011.056-.108c.672 0 1.268.116 1.788.348.52.232.956.556 1.308.972.36.416.628.912.804 1.488.184.576.276 1.208.276 1.896V28h-3.3v-7.86c0-.688-.16-1.22-.48-1.596-.32-.384-.792-.576-1.416-.576-.464 0-.9.1-1.308.3-.408.2-.796.48-1.164.84V28h-3.312V10.108h3.312v6.732z" fill="#222"/><path d="M137.081 18.832c.584 0 1.088-.072 1.512-.216a2.955 2.955 0 001.044-.612 2.43 2.43 0 00.6-.924c.128-.352.192-.736.192-1.152 0-.824-.276-1.464-.828-1.92-.544-.456-1.376-.684-2.496-.684h-1.872v5.508h1.848zM145.517 28h-3.252c-.608 0-1.048-.232-1.32-.696l-3.312-5.34a1.375 1.375 0 00-.456-.456c-.16-.096-.4-.144-.72-.144h-1.224V28h-3.6V10.588h5.472c1.216 0 2.256.128 3.12.384.864.248 1.572.596 2.124 1.044.552.448.956.984 1.212 1.608.256.616.384 1.296.384 2.04 0 .576-.084 1.124-.252 1.644-.16.512-.396.98-.708 1.404-.312.424-.696.8-1.152 1.128a5.958 5.958 0 01-1.56.792c.232.128.448.284.648.468.2.176.38.388.54.636L145.517 28zm15.473-7.644c0-.344-.048-.672-.144-.984a2.217 2.217 0 00-.432-.828c-.2-.24-.452-.428-.756-.564-.304-.144-.668-.216-1.092-.216-.792 0-1.412.224-1.86.672-.448.448-.74 1.088-.876 1.92h5.16zm-5.208 1.968c.104 1.16.432 2.008.984 2.544.56.536 1.288.804 2.184.804.456 0 .848-.052 1.176-.156.336-.112.628-.232.876-.36.256-.136.484-.256.684-.36.208-.112.412-.168.612-.168.256 0 .456.096.6.288l.96 1.2c-.352.408-.74.748-1.164 1.02a6.672 6.672 0 01-1.32.636 7.012 7.012 0 01-1.38.312 9.839 9.839 0 01-1.344.096c-.864 0-1.672-.14-2.424-.42a5.672 5.672 0 01-1.956-1.26c-.552-.56-.988-1.252-1.308-2.076-.32-.824-.48-1.78-.48-2.868 0-.84.136-1.632.408-2.376.28-.744.68-1.392 1.2-1.944a5.617 5.617 0 011.896-1.308c.744-.328 1.584-.492 2.52-.492.792 0 1.52.128 2.184.384a4.718 4.718 0 011.728 1.092c.488.48.864 1.072 1.128 1.776.272.696.408 1.492.408 2.388 0 .248-.012.452-.036.612-.024.16-.064.288-.12.384a.469.469 0 01-.228.204 1.2 1.2 0 01-.372.048h-7.416zm25.119-4.152c-.088.136-.18.236-.276.3a.692.692 0 01-.372.084c-.16 0-.324-.04-.492-.12a14.08 14.08 0 00-.564-.252 5.282 5.282 0 00-.72-.264 3.197 3.197 0 00-.924-.12c-.536 0-.952.112-1.248.336a1.017 1.017 0 00-.444.864c0 .248.084.456.252.624.168.168.388.316.66.444.28.12.596.236.948.348.352.104.712.22 1.08.348.376.128.74.276 1.092.444.352.168.664.38.936.636.28.248.504.552.672.912.168.352.252.78.252 1.284 0 .6-.112 1.156-.336 1.668-.216.504-.536.94-.96 1.308-.424.368-.952.656-1.584.864-.632.208-1.36.312-2.184.312-.424 0-.844-.04-1.26-.12a6.99 6.99 0 01-1.188-.312 8.011 8.011 0 01-1.056-.492 4.719 4.719 0 01-.852-.6l.768-1.236c.088-.144.196-.256.324-.336.136-.08.308-.12.516-.12.2 0 .384.052.552.156l.564.324c.208.112.452.22.732.324.288.096.644.144 1.068.144.32 0 .596-.036.828-.108.232-.072.42-.168.564-.288.144-.128.248-.268.312-.42.072-.16.108-.324.108-.492a.87.87 0 00-.264-.66 2.154 2.154 0 00-.672-.456 6.422 6.422 0 00-.948-.348c-.36-.104-.728-.22-1.104-.348a9.861 9.861 0 01-1.092-.456 3.945 3.945 0 01-.948-.66 3.305 3.305 0 01-.672-.996c-.168-.392-.252-.868-.252-1.428 0-.512.1-.996.3-1.452.2-.464.5-.872.9-1.224s.896-.632 1.488-.84c.6-.208 1.292-.312 2.076-.312.88 0 1.68.144 2.4.432.72.288 1.312.664 1.776 1.128l-.756 1.176zm15.706-2.736c.928 0 1.772.148 2.532.444.76.296 1.412.72 1.956 1.272a5.541 5.541 0 011.26 1.992c.296.784.444 1.668.444 2.652 0 .984-.148 1.872-.444 2.664a5.662 5.662 0 01-1.26 2.004 5.521 5.521 0 01-1.956 1.272c-.76.296-1.604.444-2.532.444-.936 0-1.788-.148-2.556-.444a5.521 5.521 0 01-1.956-1.272 5.803 5.803 0 01-1.272-2.004c-.296-.792-.444-1.68-.444-2.664 0-.984.148-1.868.444-2.652a5.677 5.677 0 011.272-1.992 5.521 5.521 0 011.956-1.272c.768-.296 1.62-.444 2.556-.444zm0 10.26c.944 0 1.644-.324 2.1-.972.456-.656.684-1.628.684-2.916 0-1.28-.228-2.244-.684-2.892-.456-.656-1.156-.984-2.1-.984-.968 0-1.68.328-2.136.984-.456.648-.684 1.612-.684 2.892 0 1.288.228 2.26.684 2.916.456.648 1.168.972 2.136.972zm18.579-8.028c.392-.704.844-1.26 1.356-1.668.512-.408 1.112-.612 1.8-.612.56 0 1.016.132 1.368.396l-.216 2.448c-.04.16-.104.272-.192.336a.58.58 0 01-.336.084c-.128 0-.312-.016-.552-.048-.24-.04-.464-.06-.672-.06a2.36 2.36 0 00-.816.132c-.232.088-.44.212-.624.372a2.82 2.82 0 00-.504.588c-.144.232-.28.496-.408.792V28h-3.312V15.628h1.956c.336 0 .568.06.696.18s.22.328.276.624l.18 1.236zm17.411 10.524c-.56 0-1.056-.08-1.488-.24a3.035 3.035 0 01-1.092-.708 2.972 2.972 0 01-.672-1.104 4.394 4.394 0 01-.228-1.464v-6.672h-1.164a.67.67 0 01-.456-.168c-.12-.112-.18-.28-.18-.504v-1.296l1.98-.36.672-3.204c.088-.36.332-.54.732-.54h1.728V15.7h3.192v2.304h-3.192v6.456c0 .344.08.616.24.816.168.2.404.3.708.3.16 0 .296-.016.408-.048.112-.04.208-.08.288-.12a3.26 3.26 0 01.216-.12.441.441 0 01.216-.06c.096 0 .176.024.24.072.064.04.128.112.192.216l.996 1.584c-.456.36-.972.632-1.548.816a5.84 5.84 0 01-1.788.276z" fill="#AF9A7D"/></g><defs><filter id="prefix__filter0_d" x="12.597" y="10.108" width="227.336" height="26.084" filterUnits="userSpaceOnUse" color-interpolation-filters="sRGB"><feFlood flood-opacity="0" result="BackgroundImageFix"/><feColorMatrix in="SourceAlpha" values="0 0 0 0 0 0 0 0 0 0 0 0 0 0 0 0 0 0 127 0"/><feOffset dy="4"/><feGaussianBlur stdDeviation="2"/><feColorMatrix values="0 0 0 0 0 0 0 0 0 0 0 0 0 0 0 0 0 0 0.25 0"/><feBlend in2="BackgroundImageFix" result="effect1_dropShadow"/><feBlend in="SourceGraphic" in2="effect1_dropShadow" result="shape"/></filter></defs></svg>